<svg width="40" height="40" viewBox="0 0 40 40" fill="none" xmlns="http://www.w3.org/2000/svg">
<circle cx="20" cy="20" r="20" fill="#FF005C"/>
<path d="M28.4923 29.0057C29.3016 27.6946 29.7499 26.2168 29.7499 24.6667C29.7499 21.0558 27.4714 17.9234 24.0676 16.7818C23.6097 16.042 22.8579 15.5078 21.9709 15.3477L22.4583 14.3731C22.5869 14.1158 22.4827 13.803 22.2253 13.6743L22.6912 12.7425C22.9486 12.8702 23.2603 12.7669 23.3901 12.5096L24.4867 10.3164C24.6153 10.059 24.5111 9.7462 24.2537 9.61749L21.1287 8.05499C20.8709 7.92682 20.559 8.03009 20.4298 8.28795L19.3333 10.4812C19.2046 10.7385 19.3089 11.0513 19.5662 11.18L19.1003 12.1118C18.8435 11.9841 18.5301 12.0874 18.4014 12.3448L14.1799 20.7879C14.0512 21.0453 14.1555 21.3581 14.4128 21.4868L17.5378 23.0493C17.6126 23.0864 17.6919 23.1042 17.7702 23.1042C17.9615 23.1042 18.1451 22.999 18.2366 22.8164L19.2959 20.6981C19.8541 21.2172 20.596 21.5417 21.4166 21.5417C22.1003 21.5417 22.7282 21.3147 23.2433 20.9408C24.67 21.6385 25.5832 23.0643 25.5832 24.6667C25.5832 26.9641 23.714 28.8333 21.4166 28.8333H17.2499V27.7917H18.8124C19.1003 27.7917 19.3333 27.5587 19.3333 27.2708C19.3333 26.9829 19.1003 26.75 18.8124 26.75H16.7291H13.6041H11.5208C11.233 26.75 11 26.9829 11 27.2708C11 27.5587 11.233 27.7917 11.5208 27.7917H13.0833V28.8333C11.9344 28.8333 11 29.7676 11 30.9167V32.4792C11 32.767 11.233 33 11.5208 33H29.2291C29.517 33 29.75 32.767 29.75 32.4792V30.9167C29.75 30.0612 29.2312 29.3262 28.4923 29.0057ZM21.4167 19.4584C20.8424 19.4584 20.375 18.9909 20.375 18.4167C20.375 17.8425 20.8424 17.3751 21.4167 17.3751C21.9909 17.3751 22.4583 17.8425 22.4583 18.4167C22.4583 18.9909 21.9909 19.4584 21.4167 19.4584Z" fill="white"/>
</svg>
