<svg width="40" height="40" viewBox="0 0 40 40" fill="none" xmlns="http://www.w3.org/2000/svg">
<circle cx="20" cy="20" r="20" fill="#FF005C"/>
<path d="M14.2856 18.5711C16.6486 18.5711 18.5711 16.6486 18.5711 14.2856C18.5711 11.9225 16.6486 10 14.2856 10C11.9225 10 10 11.9225 10 14.2856C10 16.6486 11.9225 18.5711 14.2856 18.5711ZM14.2856 12.857C15.0733 12.857 15.7141 13.4979 15.7141 14.2856C15.7141 15.0733 15.0733 15.7141 14.2856 15.7141C13.4979 15.7141 12.857 15.0733 12.857 14.2856C12.857 13.4979 13.4979 12.857 14.2856 12.857Z" fill="white"/>
<path d="M25.7133 21.4288C23.3502 21.4288 21.4277 23.3513 21.4277 25.7144C21.4277 28.0775 23.3502 30 25.7133 30C28.0764 30 29.9989 28.0775 29.9989 25.7144C29.9989 23.3513 28.0764 21.4288 25.7133 21.4288ZM25.7133 27.1429C24.9256 27.1429 24.2848 26.5021 24.2848 25.7144C24.2848 24.9267 24.9256 24.2859 25.7133 24.2859C26.501 24.2859 27.1418 24.9267 27.1418 25.7144C27.1418 26.5021 26.501 27.1429 25.7133 27.1429Z" fill="white"/>
<path d="M27.5607 10.4184L10.4184 27.5607C9.86053 28.1186 9.86053 29.0231 10.4184 29.5809C10.9762 30.1388 11.8807 30.1389 12.4386 29.5809L29.5809 12.4386C30.1388 11.8807 30.1388 10.9763 29.5809 10.4184C29.023 9.86053 28.1185 9.86053 27.5607 10.4184Z" fill="white"/>
</svg>
