<svg width="40" height="40" viewBox="0 0 40 40" fill="none" xmlns="http://www.w3.org/2000/svg">
<g clip-path="url(#clip0_107_679)">
<circle cx="20" cy="20" r="20" fill="#FF005C"/>
<g clip-path="url(#clip1_107_679)">
<path d="M31.9953 13.9189C31.9673 13.6607 31.8069 13.4322 31.5671 13.3204L20.3171 8.07035C20.1161 7.97655 19.8838 7.97655 19.6828 8.07035L8.4328 13.3204C8.19308 13.4322 8.03267 13.6607 8.00459 13.9189C8.00398 13.9242 8 13.9961 8 14V26.75C8 27.0567 8.1867 27.3325 8.47147 27.4463L19.7215 31.9463C19.8109 31.9821 19.9055 32 20 32C20.0946 32 20.1891 31.9821 20.2785 31.9463L31.5285 27.4463C31.8133 27.3325 32 27.0567 32 26.75V14C32 13.9961 31.9959 13.9242 31.9953 13.9189ZM20 9.57761L29.363 13.947L25.7577 15.3892L16.2185 11.3424L20 9.57761ZM14.3895 12.1959L23.7808 16.1799L20 17.6922L10.637 13.947L14.3895 12.1959ZM9.5 15.1077L19.25 19.0077V30.1422L9.5 26.2422V15.1077ZM20.75 30.1423V19.0077L30.5 15.1077V26.2422L20.75 30.1423Z" fill="white"/>
</g>
</g>
<defs>
<clipPath id="clip0_107_679">
<rect width="40" height="40" fill="white"/>
</clipPath>
<clipPath id="clip1_107_679">
<rect width="24" height="24" fill="white" transform="translate(8 8)"/>
</clipPath>
</defs>
</svg>
